<?xml version="1.0" encoding="UTF-8"?>
<svg version="1.1" xmlns="http://www.w3.org/2000/svg" width="1385" height="1136">
<path d="M0 0 C457.05 0 914.1 0 1385 0 C1385 374.88 1385 749.76 1385 1136 C927.95 1136 470.9 1136 0 1136 C0 761.12 0 386.24 0 0 Z " fill="#FDFDFD" transform="translate(0,0)"/>
<path d="M0 0 C4.31604547 0.49800525 5.5436701 2.06726345 8.25 5.375 C9.25 7.375 9.25 7.375 10.25 9.375 C11.24 9.705 12.23 10.035 13.25 10.375 C13.58 9.385 13.91 8.395 14.25 7.375 C15.425625 7.2203125 15.425625 7.2203125 16.625 7.0625 C19.58045181 6.59904978 19.58045181 6.59904978 21.25 3.375 C27.125 4.25 27.125 4.25 28.25 5.375 C30.3108626 5.50767356 32.37398429 5.60589203 34.4375 5.6875 C39.94492775 6.06546073 42.86147859 6.90500633 47.25 10.375 C48.63584108 10.84318955 50.03282392 11.27928186 51.4375 11.6875 C53.50390625 12.3984375 53.50390625 12.3984375 55.25 13.375 C56.875 16.8125 56.875 16.8125 58.25 20.375 C60.20597184 21.77212274 62.20436401 23.11279907 64.25 24.375 C64.53875 25.07625 64.8275 25.7775 65.125 26.5 C66.2335856 28.83268383 66.2335856 28.83268383 70 29.4375 C70.71800781 29.58316406 71.43601562 29.72882813 72.17578125 29.87890625 C74.25 30.375 74.25 30.375 77.1875 31.875 C84.42857768 35.42165029 92.05641125 35.71582949 100 35.6875 C100.91910156 35.70361328 101.83820313 35.71972656 102.78515625 35.73632812 C107.88139545 35.74001571 111.01222446 35.46421955 115.25 32.375 C122.92673768 30.94374382 132.06098295 29.86036944 139.25 33.375 C141.09143031 34.86028555 142.83249655 36.3966927 144.5390625 38.03515625 C146.62091968 39.66546906 147.58697886 40.25352886 150.25 40.375 C152.69695213 39.31600067 154.93121518 38.22544429 157.25 36.9375 C163.73714286 33.375 163.73714286 33.375 168.25 33.375 C169.63509525 34.99890477 170.95758949 36.67640333 172.25 38.375 C173.44010881 39.39662149 174.64974302 40.39580912 175.875 41.375 C178.86023444 43.84161321 179.90570389 45.72619628 181.25 49.375 C183.47957152 51.42855272 185.50330041 53.02498457 188.25 54.3125 C193.15172371 56.91654072 197.29201473 61.82417414 199.234375 66.99609375 C199.48703125 67.92550781 199.7396875 68.85492188 200 69.8125 C200.39445312 71.20275391 200.39445312 71.20275391 200.796875 72.62109375 C201.45830546 76.64099438 200.52067456 79.56297631 199.25 83.375 C199.9925 83.024375 200.735 82.67375 201.5 82.3125 C206.52078256 80.60086958 210.65904974 83.16692773 215.25 85.375 C215.98605469 85.725625 216.72210938 86.07625 217.48046875 86.4375 C219.64625714 87.60280915 221.45212707 88.69516924 223.25 90.375 C224.34074392 95.72956105 222.80253623 99.72573758 220.25 104.375 C218.91666667 105.04166667 217.58333333 105.70833333 216.25 106.375 C215.43415432 109.43408413 215.43415432 109.43408413 215.25 112.375 C215.91 112.375 216.57 112.375 217.25 112.375 C217.25 111.055 217.25 109.735 217.25 108.375 C218.9 108.375 220.55 108.375 222.25 108.375 C222.3325 108.99375 222.415 109.6125 222.5 110.25 C223.06258459 112.55937567 223.06258459 112.55937567 225.3125 113.625 C226.2715625 113.99625 226.2715625 113.99625 227.25 114.375 C227.25 116.025 227.25 117.675 227.25 119.375 C228.03375 119.2925 228.8175 119.21 229.625 119.125 C236.02225589 119.56619006 242.39895767 122.11636606 247.25 126.375 C247.25 127.035 247.25 127.695 247.25 128.375 C248.03375 128.33375 248.8175 128.2925 249.625 128.25 C252.25 128.375 252.25 128.375 254.25 130.375 C254.311875 131.48875 254.37375 132.6025 254.4375 133.75 C254.87410959 137.60294137 254.87410959 137.60294137 258.1875 139.4375 C259.13689453 139.88996094 259.13689453 139.88996094 260.10546875 140.3515625 C262.52775782 141.50755473 264.72783026 142.88469318 267 144.3125 C270.55802699 146.46789535 274.12521293 148.27452704 277.9375 149.9375 C282.5428634 151.96542991 286.35922947 154.17592201 290.25 157.375 C290.25 158.035 290.25 158.695 290.25 159.375 C291.32121094 159.78878906 291.32121094 159.78878906 292.4140625 160.2109375 C300.29220579 163.44466574 306.19041189 166.87447889 311.51171875 173.5546875 C314.51694803 176.70173659 318.25764297 177.85312715 322.25 179.375 C329.80414013 182.92914013 329.80414013 182.92914013 331.25 184.375 C331.70459858 187.02963121 331.95243238 189.69689138 332.25 192.375 C335.10127745 193.45908312 335.10127745 193.45908312 337.625 193.5625 C342.06803641 194.93772556 343.98945682 198.57422402 346.5625 202.25 C347.68194054 205.71008895 347.48419973 208.74490424 347.25 212.375 C346.59 213.035 345.93 213.695 345.25 214.375 C345.08318891 217.45847826 345.08318891 217.45847826 345.25 220.375 C345.58 219.055 345.91 217.735 346.25 216.375 C348.625 215.75 348.625 215.75 351.25 215.375 C353.25 217.375 353.25 217.375 353.3125 220.9375 C353.29316406 221.64003906 353.27382813 222.34257812 353.25390625 223.06640625 C353.24747247 226.86877012 353.76182234 230.60905805 354.25 234.375 C354.91 234.375 355.57 234.375 356.25 234.375 C356.1571875 233.0446875 356.1571875 233.0446875 356.0625 231.6875 C356.27064474 228.01027631 357.03206583 226.27537545 359.25 223.375 C359.91 223.375 360.57 223.375 361.25 223.375 C365.09417306 228.35101182 367.5839511 233.03257085 367.9140625 239.3046875 C368.49551903 242.88808238 370.34903568 245.8714234 372.0546875 249.0390625 C373.25 251.375 373.25 251.375 374.3125 254.875 C374.98942812 257.46354457 374.98942812 257.46354457 377 258.4375 C377.7425 258.746875 378.485 259.05625 379.25 259.375 C380.1575 260.15875 381.065 260.9425 382 261.75 C386.00052243 265.17758329 390.5885836 267.22817148 395.3984375 269.30078125 C400.35849355 271.54110397 402.71265558 273.51175652 405.25 278.375 C405.25 279.035 405.25 279.695 405.25 280.375 C405.91 280.375 406.57 280.375 407.25 280.375 C405.08092095 275.07921659 402.86999123 270.83965585 399.25 266.375 C397.29802637 262.00629711 396.78271419 258.97249554 398.25 254.375 C400.28720092 251.65739799 401.87772193 249.67615198 405.2980957 248.92553711 C407.67609238 248.77453292 409.99395762 248.79091825 412.375 248.875 C413.18582031 248.87242187 413.99664063 248.86984375 414.83203125 248.8671875 C420.72005958 248.96451028 420.72005958 248.96451028 422.97216797 250.70898438 C424.25 252.375 424.25 252.375 424.75 255.5 C425.99342993 260.6482362 430.48321638 263.14750926 434.5234375 266.1640625 C438.45463117 269.35182126 440.89762959 271.66320055 441.9375 276.71484375 C442.040625 277.90207031 442.14375 279.08929688 442.25 280.3125 C443.061425 286.85163092 443.94451377 290.78098033 449.30078125 294.984375 C455.56159225 299.403771 460.82870924 301.51528516 468.5625 301.5625 C478.18013344 302.18616906 482.91663428 307.93707386 489.22265625 314.5546875 C492.65712933 317.63843404 496.630347 319.91548747 500.578125 322.28515625 C504.23973542 325.14913516 505.82194177 327.88497496 506.61425781 332.49389648 C506.97328169 335.65955923 507.19834803 338.82822032 507.421875 342.00585938 C507.48890625 342.78123047 507.5559375 343.55660156 507.625 344.35546875 C507.67398437 345.05567139 507.72296875 345.75587402 507.7734375 346.47729492 C508.36849337 348.84684887 509.49886115 349.72833251 511.25 351.375 C511.25 352.035 511.25 352.695 511.25 353.375 C511.83652344 353.62636719 512.42304687 353.87773437 513.02734375 354.13671875 C515.52764337 355.52968005 516.95759876 357.01722406 518.8125 359.1875 C519.72708984 360.25484375 519.72708984 360.25484375 520.66015625 361.34375 C522.25 363.375 522.25 363.375 523.75 366.1875 C525.93738378 369.37743468 528.6124014 370.43458714 532.25 371.375 C535.37966239 371.58130125 538.46873603 371.56824186 541.60473633 371.53564453 C558.86430164 371.35772343 558.86430164 371.35772343 564.5625 376.5 C566.6015625 378.95703125 566.6015625 378.95703125 568.25 381.375 C568.81460938 382.03886719 569.37921875 382.70273437 569.9609375 383.38671875 C573.32216979 387.4859994 573.32216979 387.4859994 573.078125 390.4921875 C572.80484375 391.11351562 572.5315625 391.73484375 572.25 392.375 C570.38575376 393.08680311 568.51464202 393.78448934 566.6171875 394.40234375 C563.88766875 395.52387868 561.80836093 396.99647187 559.4375 398.75 C553.40482656 403.14163708 546.86464972 407.375 539.25 407.375 C539.25 408.035 539.25 408.695 539.25 409.375 C539.93964844 409.09785156 540.62929688 408.82070313 541.33984375 408.53515625 C547.41201871 406.19457852 552.75573352 404.80085354 559.25 404.375 C559.25 403.715 559.25 403.055 559.25 402.375 C564.72507398 398.13181766 571.14212989 394.70863718 578.25 395.375 C578.270625 394.611875 578.29125 393.84875 578.3125 393.0625 C579.25 390.375 579.25 390.375 582.75 388.625 C583.905 388.2125 585.06 387.8 586.25 387.375 C586.58 387.045 586.91 386.715 587.25 386.375 C593.51656322 386.3077622 598.22865744 387.6592065 603.25 391.375 C603.745 392.40625 604.24 393.4375 604.75 394.5 C605.245 395.44875 605.74 396.3975 606.25 397.375 C608.56543043 398.10140955 610.90269935 398.75931458 613.25 399.375 C616.52589158 400.8994824 619.02346527 402.50293432 621.25 405.375 C621.91714336 408.55127374 622.06439158 411.42579025 622.01953125 414.66796875 C622.28735749 417.81379223 622.94652021 418.37783401 625.25 420.375 C624.9375 422.5625 624.9375 422.5625 624.25 424.375 C620.1303623 425.66743536 616.58168317 426.63752625 612.25 426.375 C612.1675 426.99246094 612.085 427.60992187 612 428.24609375 C611.25 430.375 611.25 430.375 609.4375 431.53515625 C608.3546875 431.98181641 608.3546875 431.98181641 607.25 432.4375 C605.0854427 433.28632638 605.0854427 433.28632638 603.25 434.375 C602.92 435.365 602.59 436.355 602.25 437.375 C603.24 437.705 604.23 438.035 605.25 438.375 C605.25 439.365 605.25 440.355 605.25 441.375 C600.795 443.355 600.795 443.355 596.25 445.375 C597.178125 445.045 598.10625 444.715 599.0625 444.375 C604.98489707 442.69839472 611.59117567 442.15637218 617.25 444.75 C617.91 445.28625 618.57 445.8225 619.25 446.375 C620.24 447.035 621.23 447.695 622.25 448.375 C622.25 449.695 622.25 451.015 622.25 452.375 C621.1775 452.4575 620.105 452.54 619 452.625 C614.00642139 453.62371572 612.47476963 455.69661198 609.5625 459.6875 C606.7562539 461.73530121 605.8637003 461.49874448 602.5 461.125 C601.07979799 460.89593516 599.66154099 460.65248242 598.25 460.375 C596.1396565 464.65384606 596.00871261 468.51364142 596.125 473.1875 C596.13853516 474.22680664 596.13853516 474.22680664 596.15234375 475.28710938 C596.17573843 476.98322395 596.21160359 478.67915871 596.25 480.375 C596.86488281 480.62894531 597.47976563 480.88289063 598.11328125 481.14453125 C598.92152344 481.48871094 599.72976563 481.83289063 600.5625 482.1875 C601.36300781 482.52394531 602.16351562 482.86039063 602.98828125 483.20703125 C605.23671014 484.36813701 606.51961715 485.5661862 608.25 487.375 C609.1575 487.7875 610.065 488.2 611 488.625 C614.59583237 490.56121743 616.87134137 492.79781318 619.63671875 495.75390625 C621.3567332 497.5895051 621.3567332 497.5895051 624.25 499.375 C626.2093874 499.39842737 626.2093874 499.39842737 628.3125 499 C642.65028061 497.08518239 642.65028061 497.08518239 649.25 501.375 C649.91 502.035 650.57 502.695 651.25 503.375 C653.17432719 503.43609256 653.17432719 503.43609256 655.25 503.0625 C655.95125 502.96324219 656.6525 502.86398437 657.375 502.76171875 C659.32960396 502.44241546 659.32960396 502.44241546 661.25 501.375 C666.53810092 500.92494886 666.53810092 500.92494886 668.94921875 502.44921875 C670.94936063 505.41038976 670.34653195 507.92514671 670.125 511.4375 C669.89842978 517.57755309 670.87429507 521.38315147 674.01171875 526.6328125 C675.91926058 530.85708493 676.21951778 535.17179515 676.61669922 539.75561523 C676.96396305 543.66161187 677.67923372 546.79026367 679.25 550.375 C679.01670272 554.22440512 676.92151977 555.78696522 674.25 558.375 C673.92 559.365 673.59 560.355 673.25 561.375 C674.549375 561.189375 675.84875 561.00375 677.1875 560.8125 C679.40234375 560.49609375 679.40234375 560.49609375 681.25 560.375 C682.25 561.375 682.25 561.375 682.375 564.75 C682.25 568.375 682.25 568.375 681.25 571.375 C682.24 571.375 683.23 571.375 684.25 571.375 C684.25 570.715 684.25 570.055 684.25 569.375 C690.07681177 569.62889158 693.99415528 569.98616013 698.25 574.375 C700.1589568 578.19291361 700.11930109 582.25031619 699.25 586.375 C696.94956635 589.51607352 694.28388044 591.95060447 691.25 594.375 C693.23 594.045 695.21 593.715 697.25 593.375 C698.25 596.375 698.25 596.375 697.375 598.2421875 C697.00375 598.94601562 696.6325 599.64984375 696.25 600.375 C695.67227614 602.95068555 695.24513724 605.52926338 694.8125 608.1328125 C694.25 610.375 694.25 610.375 692.25 612.375 C690.26178687 612.77264263 688.26055661 613.11275349 686.25 613.375 C685.92 615.355 685.59 617.335 685.25 619.375 C685.91 619.375 686.57 619.375 687.25 619.375 C687.29125 618.776875 687.3325 618.17875 687.375 617.5625 C688.68215738 614.29460654 691.15644546 613.8914483 694.25 612.375 C697.33294733 609.45869847 698.38370653 607.50812372 698.625 603.375 C698.80913407 600.88210792 698.97802348 599.71073363 700.56640625 597.75 C704.54545455 594.375 704.54545455 594.375 707.25 594.375 C707.58 593.385 707.91 592.395 708.25 591.375 C713 592.125 713 592.125 715.25 594.375 C722.46075636 595.7509406 728.56519572 595.73172977 735.37890625 593.03125 C737.25 592.375 737.25 592.375 740.1875 592.375 C742.25 593.375 742.25 593.375 743.1875 595.8125 C744.03069068 598.69753707 744.03069068 598.69753707 747.25 599.625 C748.24 599.8725 749.23 600.12 750.25 600.375 C750.91 600.705 751.57 601.035 752.25 601.375 C754.77721378 601.64809514 757.30411125 601.82057177 759.83984375 601.99609375 C762.25 602.375 762.25 602.375 765.25 604.375 C765.47265625 606.3984375 765.47265625 606.3984375 765.3125 608.75 C765.08512726 612.23638203 765.18924992 614.46865338 767.25 617.375 C769.34838122 618.4269412 769.34838122 618.4269412 771.75 619 C776.0661435 620.1911435 776.0661435 620.1911435 778.25 622.375 C778.453125 624.58203125 778.453125 624.58203125 778.5 627.1875 C778.76717139 630.93084247 778.76717139 630.93084247 780.57421875 634.109375 C785.5944899 638.24228588 789.25284509 638.57730204 795.5234375 638.8984375 C798.63908895 639.44300695 800.11057778 640.04014979 802.25 642.375 C802.3515625 644.75 802.3515625 644.75 801.875 647.375 C801.04969787 651.59747633 801.04969787 651.59747633 803.25 655.375 C803.6875 657.875 803.6875 657.875 803.25 660.375 C801.125 661.9375 801.125 661.9375 798.25 663.375 C789.96337331 667.6909514 787.7514178 675.48530287 785 683.9375 C783.47852147 689.115435 782.61461082 693.99699044 782.25 699.375 C783.178125 699.478125 784.10625 699.58125 785.0625 699.6875 C788.41425039 700.41042655 789.20512812 700.77406647 791.25 703.375 C792.48918481 711.91160648 789.00074142 717.87351715 785.25 725.375 C783.5332008 729.12392887 782.85015798 732.3907931 782.5 736.5 C782.40203125 737.53382813 782.3040625 738.56765625 782.203125 739.6328125 C782.00671836 742.59550889 782.00671836 742.59550889 784.25 745.375 C784.394375 746.385625 784.53875 747.39625 784.6875 748.4375 C784.873125 749.406875 785.05875 750.37625 785.25 751.375 C786.24 752.035 787.23 752.695 788.25 753.375 C788.5 755.9375 788.5 755.9375 788.25 758.375 C787.92 758.705 787.59 759.035 787.25 759.375 C787.09893197 762.09422446 787.24256529 764.34377424 787.875 767 C788.25 769.375 788.25 769.375 786.25 772.375 C786.08187999 774.35936449 786.08187999 774.35936449 786.30859375 776.5078125 C786.36466797 777.31476562 786.42074219 778.12171875 786.47851562 778.953125 C786.58196289 780.21382812 786.58196289 780.21382812 786.6875 781.5 C787.14155857 787.20045809 787.23241609 792.4773694 786.48364258 798.15136719 C786.01060867 802.6533451 786.2865196 807.19663782 786.46484375 811.71289062 C786.56998801 817.24252279 785.40805952 821.32123511 783.25 826.375 C780.89602312 833.78939775 781.1039972 841.2581111 781.32348633 848.95043945 C781.3489856 850.15059692 781.3489856 850.15059692 781.375 851.375 C781.39820313 852.096875 781.42140625 852.81875 781.4453125 853.5625 C781.25 855.375 781.25 855.375 779.25 857.375 C779.085 858.53 778.92 859.685 778.75 860.875 C778.25 864.375 778.25 864.375 776.25 866.375 C773.6875 866.125 773.6875 866.125 771.25 865.375 C770.92 864.715 770.59 864.055 770.25 863.375 C767.91989091 862.69715008 765.58640176 862.03083207 763.25 861.375 C760.9499007 859.0749007 760.82447969 858.06123331 760.25 854.9375 C759.64542947 851.66094366 759.163029 850.2445435 757.25 847.375 C755.6721875 846.7871875 755.6721875 846.7871875 754.0625 846.1875 C748.79747196 844.1344702 744.75060811 839.37621623 742.25 834.375 C741.26 834.705 740.27 835.035 739.25 835.375 C739.25 838.345 739.25 841.315 739.25 844.375 C737.6 844.375 735.95 844.375 734.25 844.375 C734.91 845.365 735.57 846.355 736.25 847.375 C736.375 850.5625 736.375 850.5625 736.25 853.375 C737.054375 853.601875 737.85875 853.82875 738.6875 854.0625 C741.25 855.375 741.25 855.375 742.1875 857.875 C742.208125 858.7 742.22875 859.525 742.25 860.375 C741.59 861.035 740.93 861.695 740.25 862.375 C737.625 862 737.625 862 735.25 861.375 C735.25 860.715 735.25 860.055 735.25 859.375 C734.239375 859.46523438 733.22875 859.55546875 732.1875 859.6484375 C727.53537922 859.32537356 724.9037814 857.65877843 721.25 855 C716.60938124 851.68527232 712.80769837 849.94478259 707.25 848.375 C705.5 846.82421875 705.5 846.82421875 704.25 845.0625 C701.39044898 841.41752563 698.39896794 838.51702531 694.25 836.375 C691.45356756 835.95196494 691.45356756 835.95196494 689.25 836.375 C688.39971094 838.61492157 688.39971094 838.61492157 688.25 841.375 C689.77503964 844.06143127 689.77503964 844.06143127 692 846.625 C695.30905145 850.88691967 697.38089413 854.49793045 698.77734375 859.6953125 C699.10820483 861.39624933 699.10820483 861.39624933 700.25 862.375 C700.375 865.875 700.375 865.875 700.25 869.375 C698.61372273 871.01127727 696.81755367 870.77907321 694.5625 870.9375 C689.80131033 870.87706177 689.80131033 870.87706177 687.67578125 868.94140625 C686.76345986 867.57977343 685.8774949 866.20028549 685.01171875 864.80859375 C682.78968113 861.73912715 680.10044681 859.44341782 677.1875 857.0625 C676.18589844 856.24136719 675.18429687 855.42023437 674.15234375 854.57421875 C671.36879243 852.32143046 671.36879243 852.32143046 668.37890625 850.95703125 C667.67636719 850.43496094 666.97382812 849.91289063 666.25 849.375 C666.22631745 847.37514022 666.22680568 845.3748655 666.25 843.375 C664.40439853 841.34428214 664.40439853 841.34428214 661.8125 839.875 C660.90886719 839.28847656 660.00523437 838.70195313 659.07421875 838.09765625 C657.2524605 836.98645931 655.422219 835.88899681 653.58203125 834.80859375 C651.31816424 833.43011829 649.22009976 832.14948702 647.25 830.375 C646.6875 827 646.6875 827 647.25 824.375 C646.46625 824.065625 645.6825 823.75625 644.875 823.4375 C642.25 822.375 642.25 822.375 640.25 821.375 C640.25 819.725 640.25 818.075 640.25 816.375 C639.486875 816.08625 638.72375 815.7975 637.9375 815.5 C635.25 814.375 635.25 814.375 632.25 812.375 C632.25 811.385 632.25 810.395 632.25 809.375 C632.91 809.375 633.57 809.375 634.25 809.375 C631.89033993 806.73218072 629.69391426 805.01609361 626.5625 803.4375 C623.25 801.375 623.25 801.375 622.3125 798.625 C622.2815625 797.51125 622.2815625 797.51125 622.25 796.375 C620.27 796.375 618.29 796.375 616.25 796.375 C616.023125 795.735625 615.79625 795.09625 615.5625 794.4375 C614.4246842 792.1518844 614.4246842 792.1518844 611.9375 791.6875 C609.29712268 791.33962098 609.29712268 791.33962098 606.8125 791.3125 C603.75827287 790.19509983 603.20591746 789.1850343 601.375 786.5625 C597.30884666 780.78319576 592.80768894 778.74390838 586.1875 776.9375 C581.37161723 775.5740994 578.67274751 774.05445357 575.25 770.375 C574.85554687 768.95767578 574.85554687 768.95767578 574.453125 767.51171875 C572.90511247 763.47582893 570.95115316 762.06732125 567.5 759.5 C566.93087891 759.07364258 566.36175781 758.64728516 565.77539062 758.20800781 C560.57355703 754.40448608 555.05772288 751.32120498 549.34375 748.359375 C546.40905463 746.47701989 544.80795558 744.65777424 542.69775391 741.93652344 C539.76123986 738.76924792 535.8763378 736.80554536 532.1875 734.625 C513.46436365 723.19654548 513.46436365 723.19654548 508.25 715.375 C508.0625 712.75 508.0625 712.75 508.25 710.375 C508.58 710.045 508.91 709.715 509.25 709.375 C509.58354403 705.95875742 509.58354403 705.95875742 509.25 702.375 C508.775625 701.900625 508.30125 701.42625 507.8125 700.9375 C506.25 699.375 506.25 699.375 506.03125 695.6015625 C505.63161077 691.9507044 505.3090239 691.43697076 502.58984375 688.58203125 C501.47347091 687.75922251 500.33818504 686.96159721 499.1875 686.1875 C498.59477295 685.76025635 498.0020459 685.3330127 497.39135742 684.89282227 C493.77006716 682.31183173 490.02985359 679.97146511 486.19921875 677.71484375 C483.69094565 675.99072016 481.5872741 673.96379834 479.375 671.875 C476.11848297 668.84289839 473.24793575 666.68803178 469.1875 664.875 C457.90532769 659.66784355 452.12108478 649.45586762 447.5625 638.375 C446.49900946 635.42222712 446.49900946 635.42222712 444.6875 633.875 C443.25 632.375 443.25 632.375 442.5 629.125 C440.86180428 624.21041283 438.37362997 621.45559415 434.25 618.375 C432.26781831 617.48496155 430.28838636 616.82492564 428.22265625 616.15625 C418.03061107 612.11979647 412.51027373 600.22435851 407.8125 591.0625 C407.45808838 590.38074707 407.10367676 589.69899414 406.73852539 588.99658203 C404.93761746 585.36618743 403.5889699 582.45259019 404.25 578.375 C404.91 577.715 405.57 577.055 406.25 576.375 C406.61675551 573.37879394 406.38946593 570.38554046 406.25 567.375 C406.24355469 566.65054688 406.23710938 565.92609375 406.23046875 565.1796875 C406.17001656 562.81798439 406.17001656 562.81798439 405.25 559.375 C402.7979606 557.1262041 402.7979606 557.1262041 400.9296875 555.83203125 C395.40718664 551.04158283 392.52694224 542.95113163 389.4140625 536.484375 C388.29270664 534.19910187 388.29270664 534.19910187 386 532.25 C383.94045653 530.04334628 383.98272527 529.2374335 383.75 526.3125 C383.68350877 522.37295658 383.68350877 522.37295658 381.25 520.5625 C380.26 519.9746875 380.26 519.9746875 379.25 519.375 C378.92 518.385 378.59 517.395 378.25 516.375 C377.26 516.045 376.27 515.715 375.25 515.375 C372.92772491 511.46379985 373.135135 507.85346532 373.375 503.4609375 C373.40724492 501.06493726 373.40724492 501.06493726 371.25 498.375 C371.1953125 496.39453125 371.1953125 496.39453125 371.375 494.1875 C371.50741321 489.68545079 370.36656321 486.85659302 368.125 483.00390625 C367.25 481.375 367.25 481.375 367.25 479.375 C366.55003906 479.21515625 365.85007812 479.0553125 365.12890625 478.890625 C360.83397601 476.62952197 358.8427186 473.09947816 356.1875 469.125 C355.67123047 468.37347656 355.15496094 467.62195313 354.62304688 466.84765625 C352.44594188 463.6693603 350.32726894 460.50511195 348.359375 457.19140625 C345.5904229 453.49434243 342.33168794 451.17690343 338.5625 448.5625 C337.20414414 447.59805463 335.84605676 446.63323098 334.48828125 445.66796875 C333.41964844 444.91128906 332.35101562 444.15460938 331.25 443.375 C329.65459193 441.77959193 329.78463837 439.8181359 329.4375 437.625 C328.78273416 434.09626197 328.42770784 432.59452144 326.125 429.75 C324.25 427.375 324.25 427.375 324.625 423.5 C324.83718606 421.4171109 324.83718606 421.4171109 324.25 419.375 C319.51178918 414.46093805 313.68129588 411.92151157 307.234375 410.046875 C304.30097184 409.05367551 302.35688609 407.61781422 300.25 405.375 C300.25 404.055 300.25 402.735 300.25 401.375 C299.65832031 401.53097656 299.06664062 401.68695313 298.45703125 401.84765625 C289.63724055 404.02023112 289.63724055 404.02023112 286.25 402.375 C281.64791691 396.87806742 281.80882231 391.58200498 281.81640625 384.58203125 C281.08935456 380.46541446 279.48473009 379.82165094 276.25 377.375 C276.04296875 375.28125 276.04296875 375.28125 276.4375 372.875 C276.82946312 365.78142348 274.05271244 360.09112726 271.27026367 353.72070312 C269.19834066 348.94346888 267.66825839 344.4224477 266.64892578 339.31347656 C264.48600767 328.80333591 258.13699102 317.66071971 252.515625 308.5703125 C251.02341863 305.98197923 250.99800405 304.31495277 251.25 301.375 C254.22 299.89 254.22 299.89 257.25 298.375 C255.27 293.425 255.27 293.425 253.25 288.375 C251.6 288.375 249.95 288.375 248.25 288.375 C246.37109375 286.328125 246.37109375 286.328125 244.6875 283.625 C242.46566385 280.11521726 240.28375992 277.22110466 237.25 274.375 C236.6725 273.818125 236.095 273.26125 235.5 272.6875 C233.14037219 271.08761441 233.14037219 271.08761441 229.48828125 271.12109375 C224.87655719 270.60061731 222.33133717 268.38806241 219.1875 265.125 C218.15052183 264.1202402 217.111477 263.11760865 216.0703125 262.1171875 C214.67425781 260.75980469 214.67425781 260.75980469 213.25 259.375 C208.13495655 254.77743176 203.93690445 253.75279121 197.25 253.375 C196.321875 253.16875 195.39375 252.9625 194.4375 252.75 C192.02323226 252.33612553 190.57886443 252.72076974 188.25 253.375 C187.445625 251.6425 187.445625 251.6425 186.625 249.875 C185.11156384 246.74543022 183.51291638 244.56161837 181.125 242.0625 C175.48751106 234.8952402 176.49208603 223.12361053 176.046875 214.390625 C175.76589346 211.12236604 175.48896046 208.41432487 174.25 205.375 C171.91085367 203.82166064 169.76201372 203.19085267 167.0625 202.4375 C161.56862539 200.36203626 157.71075667 196.00511391 154.25 191.375 C153.29391819 188.90636689 152.7937394 186.81239398 152.53125 184.1875 C152.39387761 182.12533188 152.39387761 182.12533188 150.25 180.375 C149.280625 180.065625 148.31125 179.75625 147.3125 179.4375 C144.3034892 178.39355748 143.10458334 177.8786875 141.25 175.375 C140.940625 174.59125 140.63125 173.8075 140.3125 173 C139.34464284 170.24894119 139.34464284 170.24894119 137.25 167.875 C135.25 165.375 135.25 165.375 134.3125 162.8125 C133.40998309 160.21158103 133.40998309 160.21158103 131 158.625 C128.24613231 156.37183553 127.27569488 154.7881303 125.5625 151.75 C123.30226713 148.2652359 121.8389579 146.72933671 117.75 145.8125 C112.33388387 145.1303488 106.88827895 145.39077386 101.44921875 145.6953125 C97.32602759 145.28248994 96.14450098 144.33755351 93.25 141.375 C90.94360437 138.47619947 88.80729706 135.47449349 86.6875 132.4375 C79.94049351 122.297652 79.94049351 122.297652 70.25 115.375 C65.63306309 112.48823904 62.09788768 109.39829378 58.875 105 C55.67772337 100.66187693 52.07484252 97.61131422 47.80859375 94.3515625 C40.19730134 88.47169386 33.2149167 81.91886524 27.25 74.375 C26.67765625 73.80007812 26.1053125 73.22515625 25.515625 72.6328125 C21.09708845 68.08646704 19.37996221 64.70130189 18.63671875 58.37890625 C18.50910156 57.71761719 18.38148438 57.05632812 18.25 56.375 C17.59 56.045 16.93 55.715 16.25 55.375 C16.02150597 53.35119572 15.79499351 51.327085 15.58984375 49.30078125 C15.14707363 46.79175059 14.20596582 45.95481855 12.25 44.375 C11.22695052 42.72238161 10.22383946 41.05708635 9.25 39.375 C8.92 39.045 8.59 38.715 8.25 38.375 C8.14995097 36.12683935 8.12033116 33.87538093 8.125 31.625 C8.12113281 29.77648437 8.12113281 29.77648437 8.1171875 27.890625 C8.25 24.375 8.25 24.375 8.8828125 21.546875 C9.06457031 20.47179687 9.06457031 20.47179687 9.25 19.375 C8.59 18.715 7.93 18.055 7.25 17.375 C7.25 16.055 7.25 14.735 7.25 13.375 C5.6 13.375 3.95 13.375 2.25 13.375 C2.25 12.715 2.25 12.055 2.25 11.375 C0.6 11.045 -1.05 10.715 -2.75 10.375 C-2.729375 9.6325 -2.70875 8.89 -2.6875 8.125 C-2.64759189 5.43332211 -2.64759189 5.43332211 -3.3125 3.125 C-3.456875 2.5475 -3.60125 1.97 -3.75 1.375 C-2.75 0.375 -2.75 0.375 0 0 Z " fill="#010000" transform="translate(204.75,65.625)"/>
<path d="M0 0 C2.3125 0.8125 2.3125 0.8125 4.3125 1.8125 C4.3125 3.7925 4.3125 5.7725 4.3125 7.8125 C7.2825 8.1425 10.2525 8.4725 13.3125 8.8125 C14.3025 6.1725 15.2925 3.5325 16.3125 0.8125 C17.6325 1.1425 18.9525 1.4725 20.3125 1.8125 C20.3125 2.4725 20.3125 3.1325 20.3125 3.8125 C19.6525 4.4725 18.9925 5.1325 18.3125 5.8125 C19.55 5.709375 20.7875 5.60625 22.0625 5.5 C24.296875 5.484375 24.296875 5.484375 26.3125 5.8125 C27.66636936 7.46252828 28.99928142 9.1299387 30.3125 10.8125 C32.24705695 11.31749326 32.24705695 11.31749326 34.375 11.4375 C38.3125 11.8125 38.3125 11.8125 39.77734375 13.28125 C41.74441086 15.24331185 43.09340729 15.31589066 45.8125 15.6875 C48.23828125 16.1484375 48.23828125 16.1484375 50.3125 16.8125 C52 19.3125 52 19.3125 53.3125 21.8125 C56.38811246 23.17230881 56.38811246 23.17230881 59.3125 23.8125 C59.4375 26.1875 59.4375 26.1875 59.3125 28.8125 C58.6525 29.4725 57.9925 30.1325 57.3125 30.8125 C55.9925 30.8125 54.6725 30.8125 53.3125 30.8125 C52.9825 32.4625 52.6525 34.1125 52.3125 35.8125 C46.54232774 37.62275012 42.15483741 38.54356294 36.3125 36.8125 C36.02375 37.616875 35.735 38.42125 35.4375 39.25 C34.3125 41.8125 34.3125 41.8125 32.3125 42.8125 C32.15908767 53.35600959 32.15908767 53.35600959 33.3125 63.8125 C33.6425 64.1425 33.9725 64.4725 34.3125 64.8125 C34.5 67.25 34.5 67.25 34.3125 69.8125 C33.6525 70.4725 32.9925 71.1325 32.3125 71.8125 C31.88807555 74.21243356 31.88807555 74.21243356 31.75 76.875 C31.40972222 81.71527778 31.40972222 81.71527778 30.3125 82.8125 C27.4375 83.125 27.4375 83.125 24.3125 82.8125 C23.879375 82.214375 23.44625 81.61625 23 81 C21.01668529 78.42903648 20.04852768 78.25907303 17 77.375 C13.13742428 76.24040713 11.01910503 74.76266971 8.02734375 72.01953125 C2.46179738 68.10209656 -5.18664645 67.48714177 -11.8125 67.4140625 C-13.80248179 67.63097461 -13.80248179 67.63097461 -14.90356445 69.3190918 C-17.56196223 71.54454947 -19.68660825 71.15187862 -23.10546875 71.10546875 C-24.35908203 71.09580078 -25.61269531 71.08613281 -26.90429688 71.07617188 C-28.86979492 71.0384668 -28.86979492 71.0384668 -30.875 71 C-32.21027163 70.98494967 -33.54555937 70.97126187 -34.88085938 70.95898438 C-38.15014576 70.92357694 -41.41862093 70.8741889 -44.6875 70.8125 C-45.0175 71.8025 -45.3475 72.7925 -45.6875 73.8125 C-48.64925123 73.19972388 -50.06808783 72.55877478 -52.6875 70.8125 C-54.34299531 70.42750109 -56.0097433 70.08456865 -57.6875 69.8125 C-57.9375 67 -57.9375 67 -57.6875 63.8125 C-55.8125 62.1875 -55.8125 62.1875 -53.6875 60.8125 C-52.4358533 58.72915365 -52.4358533 58.72915365 -51.6875 56.8125 C-49.75 57.5625 -49.75 57.5625 -47.6875 58.8125 C-46.55872032 61.63444921 -46.6875 63.69070239 -46.6875 66.8125 C-45.6975 66.8125 -44.7075 66.8125 -43.6875 66.8125 C-42.16148122 64.7137602 -42.16148122 64.7137602 -40.8125 62.0625 C-38.97582296 58.79678746 -37.86508424 56.95062107 -34.875 54.625 C-32.30220945 52.88533909 -32.30220945 52.88533909 -32 49.1875 C-31.896875 48.07375 -31.79375 46.96 -31.6875 45.8125 C-31.0275 45.1525 -30.3675 44.4925 -29.6875 43.8125 C-28.57375 44.039375 -27.46 44.26625 -26.3125 44.5 C-25.11625 44.603125 -23.92 44.70625 -22.6875 44.8125 C-19.46441824 41.93351949 -18.73423862 40.20393595 -18.21875 35.88671875 C-18.1953791 34.42462884 -18.18542177 32.96227521 -18.1875 31.5 C-17.97159304 23.88988598 -17.33460211 18.35233441 -11.5625 12.75 C-9.38380461 10.81260413 -9.38380461 10.81260413 -8.75 7.3125 C-7.32825494 2.62910452 -5.20607974 -0.36321487 0 0 Z " fill="#040404" transform="translate(1003.6875,933.1875)"/>
<path d="M0 0 C5.16418308 -0.64552288 8.08509732 0.77127049 12.24609375 3.57421875 C14.53054756 5.43129145 15.68971841 7.37943682 17 10 C18.0209375 11.2065625 18.0209375 11.2065625 19.0625 12.4375 C21 15 21 15 21.9375 18.125 C23.25415488 21.68771321 24.72642807 22.27706741 28 24 C28 24.66 28 25.32 28 26 C28.763125 25.896875 29.52625 25.79375 30.3125 25.6875 C31.199375 25.790625 32.08625 25.89375 33 26 C34.03789581 27.64333504 35.03567924 29.31243867 36 31 C37.65204456 31.70211894 39.31923769 32.36971413 41 33 C43.07184573 34.85751686 43.89190978 36.16398972 44.25 38.93359375 C44.36351971 42.80035883 44.17500341 44.73749488 42 48 C41.73148413 50.01183806 41.73148413 50.01183806 41.796875 52.203125 C41.78527344 53.01910156 41.77367187 53.83507812 41.76171875 54.67578125 C41.75397738 56.37630241 41.76150344 58.07696947 41.78515625 59.77734375 C41.66878795 65.47939025 40.50704329 68.52978773 36.64013672 72.74438477 C35 74 35 74 31.375 74.6875 C28 74 28 74 25.6875 72.625 C23.94925231 69.92105915 23.62378969 68.42630361 23.125 65.3125 C21.95843434 58.32342964 18.44865088 53.38892769 13.4375 48.5 C10.85206373 46.90896229 8.99050795 46.38339846 6 46 C3.8125 45.625 3.8125 45.625 2 45 C0.22393226 42.33589838 -0.42668373 40.79438264 -1.25 37.8125 C-2.64534612 33.43424561 -4.72458151 30.33641955 -7.5859375 26.77734375 C-9.28593955 24.64060084 -10.60602683 22.34440941 -12 20 C-14.77222965 16.03806447 -14.77222965 16.03806447 -19 14 C-19 13.01 -19 12.02 -19 11 C-8.62642369 7.55580866 -8.62642369 7.55580866 -3 8 C-2.01 5.36 -1.02 2.72 0 0 Z " fill="#070707" transform="translate(357,373)"/>
<path d="M0 0 C2.125 0.375 2.125 0.375 4 1 C4.03738281 1.556875 4.07476562 2.11375 4.11328125 2.6875 C4.59545666 8.28451647 5.58567282 12.90308706 8 18 C9.95021083 19.22527948 9.95021083 19.22527948 12 20 C14.50740701 23.06460857 15.12989713 25.47034683 15.375 29.3125 C15.72188799 33.84466705 17.29890303 36.51931272 19.85546875 40.203125 C21.25819162 42.40535202 21.75728863 44.4110787 22 47 C22.99 47 23.98 47 25 47 C27.32613583 50.48920374 27.24247293 51.94952546 27.1875 56.0625 C27.18105469 57.12597656 27.17460937 58.18945312 27.16796875 59.28515625 C27 62 27 62 26 64 C25.071875 63.773125 24.14375 63.54625 23.1875 63.3125 C22.135625 63.209375 21.08375 63.10625 20 63 C19.54625 63.474375 19.0925 63.94875 18.625 64.4375 C17 66 17 66 13.1875 66.5 C9.30175949 66.35818465 7.3314022 65.10212312 4.50390625 62.359375 C2.8881359 60.89888648 1.30466457 59.99965638 -0.625 59 C-5.15354803 56.31641598 -7.47454577 54.0209778 -8.8125 48.875 C-8.956875 48.28460937 -9.10125 47.69421875 -9.25 47.0859375 C-11.4861807 40.86655992 -15.96648714 35.29964675 -20 30.125 C-22 27 -22 27 -21.9375 24.3125 C-21 22 -21 22 -20.01171875 20.21484375 C-18.80553328 17.57427555 -18.35171552 15.11029313 -17.875 12.25 C-17.70742188 11.26515625 -17.53984375 10.2803125 -17.3671875 9.265625 C-17.24601562 8.51796875 -17.12484375 7.7703125 -17 7 C-14.9375 6.3125 -14.9375 6.3125 -12.875 5.625 C-12.05644531 5.35042969 -11.23789062 5.07585938 -10.39453125 4.79296875 C-8.45793273 4.1516482 -6.51154618 3.53993245 -4.5625 2.9375 C-1.87886301 2.15960388 -1.87886301 2.15960388 0 0 Z " fill="#060505" transform="translate(466,556)"/>
<path d="M0 0 C5.24911976 0.12497904 7.90757452 2.20429184 11.6796875 5.52734375 C13 7 13 7 13 9 C13.64710938 9.22945313 14.29421875 9.45890625 14.9609375 9.6953125 C17 11 17 11 17.5390625 13.2421875 C17.56742188 14.11101562 17.59578125 14.97984375 17.625 15.875 C17.76644975 19.52005136 18.27254161 21.79672086 20 25 C20.36904422 28.78270322 20.17975966 29.73036051 18 33 C19.32 32.34 20.64 31.68 22 31 C22 28.03 22 25.06 22 22 C23.32 21.34 24.64 20.68 26 20 C26.556875 20.825 27.11375 21.65 27.6875 22.5 C29.74927133 25.2745414 29.74927133 25.2745414 32.75 25.3125 C33.4925 25.209375 34.235 25.10625 35 25 C33.68 24.67 32.36 24.34 31 24 C30.875 21.125 30.875 21.125 31 18 C31.66 17.34 32.32 16.68 33 16 C40.44615679 16.40615401 49.02959017 17.54618319 54.875 22.375 C55.57625 23.24125 56.2775 24.1075 57 25 C57.825 25.804375 58.65 26.60875 59.5 27.4375 C60.325 28.283125 61.15 29.12875 62 30 C62.48210938 30.48597656 62.96421875 30.97195313 63.4609375 31.47265625 C64.875 33 64.875 33 67 36 C66.81395349 40.18604651 66.81395349 40.18604651 65 42 C63.00041636 42.04080783 60.99954746 42.04254356 59 42 C59.3403125 43.6396875 59.3403125 43.6396875 59.6875 45.3125 C60 49 60 49 58.8125 51 C57 52 57 52 55.14453125 51.71875 C52.77905853 50.9259504 50.96070062 49.86403235 48.875 48.5 C45.06077668 46.02435317 43.02430113 44.87298772 38.421875 45.04296875 C37.50792969 45.06423828 36.59398437 45.08550781 35.65234375 45.10742188 C33.73269956 45.16038649 31.81334414 45.22529938 29.89453125 45.30273438 C23.93760714 45.41552326 20.4839644 45.07700394 16 41 C15.375 38.375 15.375 38.375 15 36 C13.69223078 35.28448488 12.35161921 34.62876683 11 34 C6.48766359 31.28289421 1.84615988 28.28251678 0.46191406 22.91259766 C-0.13720186 18.28761918 -0.09702465 13.68789838 0.01904297 9.03369141 C-0.00655621 6.29983033 -0.5278012 3.68693653 -1 1 C-0.67 0.67 -0.34 0.34 0 0 Z " fill="#090909" transform="translate(715,390)"/>
<path d="M0 0 C1.65 0.33 3.3 0.66 5 1 C5.33 2.65 5.66 4.3 6 6 C6.66 6 7.32 6 8 6 C8 5.34 8 4.68 8 4 C9.9375 4.6875 9.9375 4.6875 12 6 C12.12375 6.804375 12.2475 7.60875 12.375 8.4375 C12.58125 9.283125 12.7875 10.12875 13 11 C15.96707046 12.85916824 15.96707046 12.85916824 19 14 C19 14.99 19 15.98 19 17 C21.7110414 18.23933321 23.61712346 19.00911611 26.625 18.9375 C29 19 29 19 30.6875 20.125 C32 22 32 22 32.9375 25 C34.14471867 28.40861743 34.8869504 29.270528 38 31 C39.010625 31.268125 40.02125 31.53625 41.0625 31.8125 C44 33 44 33 45.875 35.8125 C46.95111022 38.86147897 47.44228524 40.81554624 47 44 C44.65828261 46.34171739 43.76939546 46.391923 40.5625 46.75 C39.78003906 46.84796875 38.99757813 46.9459375 38.19140625 47.046875 C36 47 36 47 33 45 C32.731875 44.21625 32.46375 43.4325 32.1875 42.625 C30.55809232 39.02315143 28.36257304 38.00461085 25 36 C23.989375 35.319375 22.97875 34.63875 21.9375 33.9375 C20.4834375 32.9784375 20.4834375 32.9784375 19 32 C18.195625 31.443125 17.39125 30.88625 16.5625 30.3125 C13.37111541 28.67788838 10.55078282 28.38044102 7 28 C5.33065717 27.68033861 3.6626783 27.35268934 2 27 C1.67 26.01 1.34 25.02 1 24 C-0.6476038 23.28752268 -2.31763529 22.62599617 -4 22 C-6.3125 20.875 -6.3125 20.875 -8 19 C-8.68255678 15.37486512 -8.79071456 12.16724531 -6.6875 9.0625 C-5 8 -5 8 -2 7 C-0.77030122 3.48809191 -0.77030122 3.48809191 0 0 Z " fill="#090808" transform="translate(256,269)"/>
<path d="M0 0 C4.27153562 0.32857966 7.08371373 3.26801916 10.1875 5.9375 C10.73341797 6.39318359 11.27933594 6.84886719 11.84179688 7.31835938 C15.85925752 10.71851504 15.85925752 10.71851504 17 13 C17.04022391 15.3329866 17.04320247 17.66706666 17 20 C17.88945313 20.38091797 17.88945313 20.38091797 18.796875 20.76953125 C21.24397699 22.13626374 22.49347954 23.51742982 24.25 25.6875 C26.75013445 28.70173137 29.25365319 31.02000537 32.375 33.375 C34.8199039 35.4155544 35.85724482 36.44427446 36.65625 39.5546875 C36.875 42.25 36.875 42.25 36.8671875 44.765625 C36.82872376 47.28946747 36.82872376 47.28946747 39 50 C39.1546875 51.60875 39.1546875 51.60875 39.3125 53.25 C40.13367348 57.72912809 41.82048706 60.74697231 45 64 C45.99 64.33 46.98 64.66 48 65 C48 66.65 48 68.3 48 70 C41.77470588 67.42779056 38.26073491 61.23678774 35.0625 55.5625 C34 53 34 53 34 51 C33.34 51 32.68 51 32 51 C32.474375 51.9075 32.94875 52.815 33.4375 53.75 C34.64628821 56.26427949 35.47993886 58.29568209 36 61 C32 61 32 61 30 59.5 C28.2399071 57.29988387 27.23347269 55.52064804 26.0625 53 C24.30298686 49.30227316 22.52034271 47.23241245 19 45 C18.0925 44.690625 17.185 44.38125 16.25 44.0625 C15.13625 43.5365625 15.13625 43.5365625 14 43 C13.1875 40.375 13.1875 40.375 13 38 C13.99 38 14.98 38 16 38 C15.01 34.04 14.02 30.08 13 26 C12.34 26.66 11.68 27.32 11 28 C8.3984375 28.1953125 8.3984375 28.1953125 5.375 28.125 C3.87066406 28.09792969 3.87066406 28.09792969 2.3359375 28.0703125 C1.56507813 28.04710937 0.79421875 28.02390625 0 28 C-0.12748344 21.37086093 -0.12748344 21.37086093 0.6875 19 C1.12605215 16.19326622 -0.17479265 14.49395722 -1.359375 12.01171875 C-2.51995162 8.36722511 -1.8512865 4.67314358 -1 1 C-0.67 0.67 -0.34 0.34 0 0 Z " fill="#121212" transform="translate(545,674)"/>
<path d="M0 0 C3.16012613 0.33858494 3.95432113 0.94601588 6.0625 3.4375 C6.701875 4.283125 7.34125 5.12875 8 6 C8.99 6.66 9.98 7.32 11 8 C11.328125 10.09375 11.328125 10.09375 11.25 12.5 C11.23453125 13.2940625 11.2190625 14.088125 11.203125 14.90625 C11 17 11 17 10 19 C9.97452194 20.62493381 9.95437733 22.2499541 9.9375 23.875 C9.51690926 28.48814609 9.51690926 28.48814609 7.40234375 30.58203125 C3.91415823 32.4840669 1.36940842 33 -2.625 33 C-7.89164373 31.43951297 -12.28640605 28.88446911 -15 24 C-16.53802972 19.49231541 -17.75456068 14.74295287 -17 10 C-14.875 7.625 -14.875 7.625 -12 6 C-8.9375 5.875 -8.9375 5.875 -6 6 C-3.16777975 5.05592658 -2.27221172 4.46275992 -0.75 1.875 C-0.5025 1.25625 -0.255 0.6375 0 0 Z " fill="#090808" transform="translate(667,329)"/>
<path d="M0 0 C2.91530295 2.13063398 3.15621091 4.381512 4.05078125 7.828125 C5.18422034 12.13811226 6.30589582 14.94191261 8.98828125 18.453125 C9.17578125 22.203125 9.17578125 22.203125 8.98828125 25.453125 C8.32828125 25.453125 7.66828125 25.453125 6.98828125 25.453125 C6.89740234 26.52240234 6.89740234 26.52240234 6.8046875 27.61328125 C5.46025765 42.9811486 5.46025765 42.9811486 3.98828125 44.453125 C-1.02934558 44.8989059 -5.45794486 44.80345991 -10.01171875 42.453125 C-9.69921875 40.515625 -9.69921875 40.515625 -9.01171875 38.453125 C-7.52671875 37.958125 -7.52671875 37.958125 -6.01171875 37.453125 C-6.05296875 36.2775 -6.09421875 35.101875 -6.13671875 33.890625 C-6.12211 29.77826206 -5.55332563 26.3071422 -4.01171875 22.453125 C-2.01171875 20.953125 -2.01171875 20.953125 -0.01171875 20.453125 C0.64828125 20.783125 1.30828125 21.113125 1.98828125 21.453125 C1.57835937 20.6796875 1.1684375 19.90625 0.74609375 19.109375 C-2.28178013 13.25645132 -4.76551638 7.9333773 -6.01171875 1.453125 C-2.63643444 -0.71670063 -2.63643444 -0.71670063 0 0 Z " fill="#0D0C0D" transform="translate(434.01171875,491.546875)"/>
<path d="M0 0 C5.59595764 -0.48660501 9.14287516 0.76002698 14.24609375 2.99609375 C17.26688034 4.09728829 20.06480492 4.53096333 23.25 4.9375 C29.81164667 5.96909909 29.81164667 5.96909909 32.75 7.8125 C36.30008308 12.84178437 35.47132993 18.03854925 35 24 C33.02 24.99 33.02 24.99 31 26 C27.48650731 23.12532417 24.21107949 20.21107949 21 17 C18.75398616 15.87699308 17.42633136 15.90467894 14.9375 15.8125 C9.30467439 15.26473738 5.27132989 12.59440037 1 9 C-0.4783226 6.04335481 -0.06032783 3.25770263 0 0 Z " fill="#0C0C0C" transform="translate(698,371)"/>
<path d="M0 0 C0.55429687 0.42152344 1.10859375 0.84304688 1.6796875 1.27734375 C2.40414062 1.82519531 3.12859375 2.37304688 3.875 2.9375 C4.59429688 3.48277344 5.31359375 4.02804687 6.0546875 4.58984375 C8.95021398 6.68880973 10.73739809 7.10341655 14.25 7.3125 C18.90326582 7.77857832 21.44036026 8.98799714 25 12 C25 12.66 25 13.32 25 14 C25.639375 14.28875 26.27875 14.5775 26.9375 14.875 C29 16 29 16 30 18 C27.32119785 17.03265478 25.1859312 16.14649125 22.9375 14.375 C20.85229894 12.61416866 20.85229894 12.61416866 17 13 C17.16757812 13.80953125 17.33515625 14.6190625 17.5078125 15.453125 C17.88820192 18.19434402 18.01761329 20.44493724 17.9296875 23.171875 C17.52167371 32.38372312 17.52167371 32.38372312 21.44140625 40.36328125 C24.59814076 43.41995244 28.06297926 46.03148963 32 48 C32.268125 48.78375 32.53625 49.5675 32.8125 50.375 C34.38925555 53.86045964 35.47865438 54.47483119 39 56 C43.33045617 56.304141 47.66122409 55.97245701 51.98828125 55.70703125 C61.17888309 55.40288184 67.16619125 59.04797303 74 65 C73.34 65.66 72.68 66.32 72 67 C71.64478271 66.57412598 71.28956543 66.14825195 70.92358398 65.70947266 C67.15046374 61.80687421 64.35754231 60.57339405 58.91015625 60.3359375 C56.627622 60.32009574 54.34471921 60.33390207 52.0625 60.375 C36.98413718 60.54528078 36.98413718 60.54528078 31 56 C29.15234375 53.8515625 29.15234375 53.8515625 27.9375 51.625 C25.62271242 47.7775329 23.2750507 45.19510898 19.7109375 42.484375 C15.10497262 38.48833241 13.56381177 35.40494641 13.03515625 29.45507812 C12.98230469 28.66552734 12.92945313 27.87597656 12.875 27.0625 C12.36168336 19.3269807 12.36168336 19.3269807 10 12 C8.17209717 10.69539748 8.17209717 10.69539748 6 10 C4.57079461 9.20976418 3.15382304 8.3969948 1.75 7.5625 C1.04359375 7.15128906 0.3371875 6.74007813 -0.390625 6.31640625 C-0.92171875 5.88199219 -1.4528125 5.44757813 -2 5 C-2 4.01 -2 3.02 -2 2 C-1.34 2 -0.68 2 0 2 C0 1.34 0 0.68 0 0 Z " fill="#DFDFE0" transform="translate(698,378)"/>
<path d="M0 0 C1.32 0 2.64 0 4 0 C4 0.66 4 1.32 4 2 C4.639375 2.144375 5.27875 2.28875 5.9375 2.4375 C8 3 8 3 9 4 C9.04063832 5.66617115 9.042721 7.33388095 9 9 C9.66 9 10.32 9 11 9 C12.84563872 11.58389421 13.92464728 13.53711903 14.4375 16.6875 C14.623125 17.450625 14.80875 18.21375 15 19 C16.91666667 20.16666667 16.91666667 20.16666667 19 21 C21.1519437 24.22791555 21.20086443 25.28400809 21 29 C19.4375 29.6875 19.4375 29.6875 17 30 C14.6340213 29.07989717 12.30144109 28.07136051 10 27 C8.88625 26.67 7.7725 26.34 6.625 26 C5.75875 25.67 4.8925 25.34 4 25 C3.67 24.01 3.34 23.02 3 22 C-0.00847418 20.77479736 -0.00847418 20.77479736 -3 20 C-3.69570687 15.98036029 -4.21946279 12.90228091 -3 9 C-2.855625 7.80375 -2.71125 6.6075 -2.5625 5.375 C-2 2 -2 2 0 0 Z " fill="#100F0F" transform="translate(515,635)"/>
<path d="M0 0 C6.28951832 0.60250059 11.96433371 6.52553998 16 11 C17.62672791 15.4884411 16.77830062 18.80267654 15.2265625 23.18359375 C14.02390071 25.43067237 13.14001464 26.59901584 11 28 C7.26114774 28.57238047 3.74978621 28.41372422 0 28 C-0.12748344 21.37086093 -0.12748344 21.37086093 0.6875 19 C1.12605215 16.19326622 -0.17479265 14.49395722 -1.359375 12.01171875 C-2.51995162 8.36722511 -1.8512865 4.67314358 -1 1 C-0.67 0.67 -0.34 0.34 0 0 Z " fill="#0C0B0B" transform="translate(545,674)"/>
<path d="M0 0 C5.88061992 -0.6031405 9.8688937 1.48942299 15 4 C16.7325 4.7115625 16.7325 4.7115625 18.5 5.4375 C21 7 21 7 21.9375 9.375 C22.00205831 12.08644903 21.67418823 14.37815686 21 17 C11.97532857 17.78856352 11.97532857 17.78856352 8.0625 14.625 C7.381875 13.75875 6.70125 12.8925 6 12 C3.01353231 10.00902154 0.40312738 9.05875074 -3 8 C-3 6.68 -3 5.36 -3 4 C-2.34 4 -1.68 4 -1 4 C-0.67 2.68 -0.34 1.36 0 0 Z " fill="#0C0C0C" transform="translate(706,883)"/>
<path d="M0 0 C0.55429687 0.42152344 1.10859375 0.84304688 1.6796875 1.27734375 C2.40414062 1.82519531 3.12859375 2.37304688 3.875 2.9375 C4.59429688 3.48277344 5.31359375 4.02804687 6.0546875 4.58984375 C8.95021398 6.68880973 10.73739809 7.10341655 14.25 7.3125 C18.90326582 7.77857832 21.44036026 8.98799714 25 12 C25 12.66 25 13.32 25 14 C25.639375 14.28875 26.27875 14.5775 26.9375 14.875 C29 16 29 16 30 18 C27.32119785 17.03265478 25.1859312 16.14649125 22.9375 14.375 C20.85229894 12.61416866 20.85229894 12.61416866 17 13 C17 17.29 17 21.58 17 26 C16.01 26.33 15.02 26.66 14 27 C13.87882813 26.41992188 13.75765625 25.83984375 13.6328125 25.2421875 C12.26006304 18.48390076 12.26006304 18.48390076 10 12 C8.15868207 10.93830294 8.15868207 10.93830294 6 10 C4.57079461 9.20976418 3.15382304 8.3969948 1.75 7.5625 C1.04359375 7.15128906 0.3371875 6.74007813 -0.390625 6.31640625 C-0.92171875 5.88199219 -1.4528125 5.44757813 -2 5 C-2 4.01 -2 3.02 -2 2 C-1.34 2 -0.68 2 0 2 C0 1.34 0 0.68 0 0 Z " fill="#E2E2E2" transform="translate(698,378)"/>
<path d="M0 0 C2.27233145 0.01175851 4.54446396 0.10985359 6.8125 0.25 C8.05644531 0.31703125 9.30039062 0.3840625 10.58203125 0.453125 C14.02409441 1.0038551 15.49681572 1.65444697 18 4 C17.67 5.98 17.34 7.96 17 10 C14.20743781 9.88638398 11.41655882 9.7596411 8.625 9.625 C7.8309375 9.5940625 7.036875 9.563125 6.21875 9.53125 C0.2265625 9.2265625 0.2265625 9.2265625 -2 7 C-1.43181818 1.43181818 -1.43181818 1.43181818 0 0 Z " fill="#161616" transform="translate(441,475)"/>
<path d="M0 0 C1.32 0.33 2.64 0.66 4 1 C4.2475 2.051875 4.495 3.10375 4.75 4.1875 C5.54493665 7.05042403 6.17566317 8.21699568 8.125 10.625 C10.28677991 13.36325456 10.38820805 14.60317957 10 18 C8.68 18.33 7.36 18.66 6 19 C5.5875 18.45730469 5.175 17.91460937 4.75 17.35546875 C0.55409106 12.15741191 -2.56045862 9.80759056 -9 8 C-9 6.68 -9 5.36 -9 4 C-6.04335481 2.5216774 -3.25770263 2.93967217 0 3 C0 2.01 0 1.02 0 0 Z " fill="#1D1D1D" transform="translate(352,316)"/>
<path d="M0 0 C1.9375 0.75 1.9375 0.75 4 2 C5.12877968 4.82194921 5 6.87820239 5 10 C6.32 10 7.64 10 9 10 C9 10.66 9 11.32 9 12 C10.32 12.66 11.64 13.32 13 14 C11.02 14 9.04 14 7 14 C6.67 14.99 6.34 15.98 6 17 C3.03824877 16.38722388 1.61941217 15.74627478 -1 14 C-2.65549531 13.61500109 -4.3222433 13.27206865 -6 13 C-6.25 10.1875 -6.25 10.1875 -6 7 C-4.125 5.375 -4.125 5.375 -2 4 C-0.7483533 1.91665365 -0.7483533 1.91665365 0 0 Z " fill="#131313" transform="translate(952,990)"/>
<path d="M0 0 C0.33 1.32 0.66 2.64 1 4 C-0.43671568 4.64757625 -1.87440416 5.29299453 -3.3125 5.9375 C-4.11300781 6.29714844 -4.91351562 6.65679687 -5.73828125 7.02734375 C-8 8 -8 8 -11 9 C-11 9.66 -11 10.32 -11 11 C-12.22976563 11.29003906 -12.22976563 11.29003906 -13.484375 11.5859375 C-14.56203125 11.84632813 -15.6396875 12.10671875 -16.75 12.375 C-17.81734375 12.63023437 -18.8846875 12.88546875 -19.984375 13.1484375 C-22.92175877 13.87007009 -22.92175877 13.87007009 -25.140625 15.1015625 C-27 16 -27 16 -31 16 C-31 15.34 -31 14.68 -31 14 C-30.05640625 13.63648438 -30.05640625 13.63648438 -29.09375 13.265625 C-20.88958847 10.05315211 -13.70885218 6.91447638 -6.95703125 1.171875 C-4.50379443 -0.29712908 -2.8103451 -0.21356681 0 0 Z " fill="#E5E5E6" transform="translate(775,459)"/>
<path d="M0 0 C1.32 0 2.64 0 4 0 C4 1.32 4 2.64 4 4 C5.11375 3.79375 6.2275 3.5875 7.375 3.375 C8.57125 3.25125 9.7675 3.1275 11 3 C13 5 13 5 13.1875 8.0625 C13 11 13 11 12 12 C6.94995819 12.76515785 3.26931345 10.3730179 -1 8 C-1.04241723 5.66705225 -1.04092937 3.33297433 -1 1 C-0.67 0.67 -0.34 0.34 0 0 Z " fill="#1A1A1A" transform="translate(213,49)"/>
<path d="M0 0 C-0.25662245 1.44010481 -0.53090821 2.8770687 -0.8125 4.3125 C-0.96332031 5.11300781 -1.11414063 5.91351562 -1.26953125 6.73828125 C-2.08500756 9.26320524 -2.91953671 10.38069734 -5 12 C-5.66 12 -6.32 12 -7 12 C-7 10.68 -7 9.36 -7 8 C-8.98 8.33 -10.96 8.66 -13 9 C-13.33 7.68 -13.66 6.36 -14 5 C-9.15742979 0.94271144 -6.31225945 -0.14027243 0 0 Z " fill="#111111" transform="translate(943,979)"/>
<path d="M0 0 C0.66 1.32 1.32 2.64 2 4 C2.66 3.01 3.32 2.02 4 1 C4.34611328 2.42892578 4.34611328 2.42892578 4.69921875 3.88671875 C5.02535156 5.14097656 5.35148438 6.39523437 5.6875 7.6875 C6.00074219 8.92886719 6.31398438 10.17023438 6.63671875 11.44921875 C8.13373739 15.34833033 9.87328777 17.28810863 13 20 C12.01 20.99 11.02 21.98 10 23 C4.63454163 19.11923011 1.28945318 15.62635661 0 9 C-0.20674994 5.97863155 -0.18883275 3.02132393 0 0 Z " fill="#E9E9E9" transform="translate(646,340)"/>
<path d="M0 0 C2.40327337 1.70011123 4.72870464 3.44491009 6.94921875 5.37890625 C6.28921875 6.03890625 5.62921875 6.69890625 4.94921875 7.37890625 C4.38811401 6.74227051 4.38811401 6.74227051 3.81567383 6.09277344 C-0.68894471 1.56761007 -4.08294232 0.70370907 -10.38867188 0.59375 C-11.86110352 0.61115234 -11.86110352 0.61115234 -13.36328125 0.62890625 C-15.33858872 0.62127467 -17.31388616 0.60603744 -19.2890625 0.58203125 C-20.58904175 0.59218262 -20.58904175 0.59218262 -21.9152832 0.60253906 C-24.05078125 0.37890625 -24.05078125 0.37890625 -26.05078125 -1.62109375 C-16.73153128 -4.43445223 -8.51035965 -5.36290168 0 0 Z " fill="#E8E8E8" transform="translate(765.05078125,437.62109375)"/>
<path d="M0 0 C1.32 0.33 2.64 0.66 4 1 C3.16543003 8.15140132 1.66532313 13.27889739 -4 18 C-6.8125 19.25 -6.8125 19.25 -9 20 C-9.33 20.99 -9.66 21.98 -10 23 C-10.66 23 -11.32 23 -12 23 C-12 21.02 -12 19.04 -12 17 C-10.741875 16.7525 -9.48375 16.505 -8.1875 16.25 C-5.90644225 15.55115057 -5.90644225 15.55115057 -4 14 C-2.37764213 10.09654165 -1.7222055 6.14820512 -1 2 C-0.67 1.34 -0.34 0.68 0 0 Z " fill="#EEEEEF" transform="translate(902,662)"/>
<path d="M0 0 C2.47755984 1.66806009 2.90771746 2.878429 3.78515625 5.703125 C4.03910156 6.47398437 4.29304688 7.24484375 4.5546875 8.0390625 C5.00432658 10.50157186 4.76163813 11.97728104 3.97265625 14.328125 C3.97265625 13.338125 3.97265625 12.348125 3.97265625 11.328125 C2.32265625 11.988125 0.67265625 12.648125 -1.02734375 13.328125 C-4.36508084 9.68695727 -5.00599277 6.04205258 -6.02734375 1.328125 C-2.61386727 -0.86625274 -2.61386727 -0.86625274 0 0 Z " fill="#0F0F0F" transform="translate(434.02734375,491.671875)"/>
<path d="M0 0 C2.02600154 3.03900231 2.24023952 3.61567256 2.23828125 7.01953125 C2.25439453 7.79490234 2.27050781 8.57027344 2.28710938 9.36914062 C2.30391386 10.9862492 2.30929229 12.60352053 2.30273438 14.22070312 C2.45565513 20.18461276 3.74441329 22.7985384 8 27 C5 27 5 27 2.4375 24.625 C1.2309375 23.325625 1.2309375 23.325625 0 22 C-0.66 21.34 -1.32 20.68 -2 20 C-2.1953125 17.8359375 -2.1953125 17.8359375 -2.125 15.375 C-2.10695313 14.55773437 -2.08890625 13.74046875 -2.0703125 12.8984375 C-2.04710937 12.27195312 -2.02390625 11.64546875 -2 11 C-1.34 10.67 -0.68 10.34 0 10 C0 6.7 0 3.4 0 0 Z " fill="#D1D1D1" transform="translate(714,394)"/>
<path d="M0 0 C0.33 0 0.66 0 1 0 C1.061875 1.010625 1.12375 2.02125 1.1875 3.0625 C1.80802723 7.47813583 3.90150432 10.82986281 7 14 C7.99 14.33 8.98 14.66 10 15 C10 16.65 10 18.3 10 20 C6.43903909 18.5378836 4.63829761 16.6621587 2.3125 13.625 C1.71050781 12.85414063 1.10851562 12.08328125 0.48828125 11.2890625 C-0.9470092 9.08150291 -1.67689415 7.595617 -2 5 C-1.0625 2.25 -1.0625 2.25 0 0 Z " fill="#141414" transform="translate(583,724)"/>
<path d="M0 0 C2.475 0.99 2.475 0.99 5 2 C5 2.66 5 3.32 5 4 C5.99 4.33 6.98 4.66 8 5 C7.67 6.65 7.34 8.3 7 10 C5.25 9.875 5.25 9.875 3 9 C0.6875 6.125 0.6875 6.125 -1 3 C-0.67 2.01 -0.34 1.02 0 0 Z " fill="#1D1D1D" transform="translate(909,920)"/>
<path d="M0 0 C2.1793144 1.75864246 2.93686419 2.69396 3.51171875 5.48046875 C3.59873047 6.82044922 3.59873047 6.82044922 3.6875 8.1875 C3.75324219 9.08855469 3.81898438 9.98960937 3.88671875 10.91796875 C3.92410156 11.60503906 3.96148438 12.29210937 4 13 C3.01 13.33 2.02 13.66 1 14 C0.63659714 12.23103898 0.28459117 10.45973374 -0.0625 8.6875 C-0.25972656 7.70136719 -0.45695313 6.71523438 -0.66015625 5.69921875 C-1 3 -1 3 0 0 Z " fill="#F5F5F5" transform="translate(711,391)"/>
<path d="M0 0 C0.125 2.375 0.125 2.375 0 5 C-0.66 5.66 -1.32 6.32 -2 7 C-4.125 6.625 -4.125 6.625 -6 6 C-6.33 4.68 -6.66 3.36 -7 2 C-4 0 -4 0 0 0 Z " fill="#191919" transform="translate(960,942)"/>
<path d="M0 0 C5.36513131 0.847126 10.6787385 1.91681831 16 3 C12.4296875 6.015625 12.4296875 6.015625 8.5625 5.875 C5.12502575 5.03070808 2.81090343 4.1294723 0 2 C0 1.34 0 0.68 0 0 Z " fill="#D8D9D9" transform="translate(729,432)"/>
<path d="M0 0 C3.68040867 2.32446864 5.2994906 4.07965475 6.3125 8.25 C6.6528125 10.10625 6.6528125 10.10625 7 12 C6.34 12 5.68 12 5 12 C1 6.58823529 1 6.58823529 1 4 C0.01 3.67 -0.98 3.34 -2 3 C-1.34 2.01 -0.68 1.02 0 0 Z " fill="#DDDCDC" transform="translate(605,334)"/>
<path d="M0 0 C3 1 3 1 6 3 C4.98679687 3.18175781 4.98679687 3.18175781 3.953125 3.3671875 C2.61507812 3.61855469 2.61507812 3.61855469 1.25 3.875 C0.36828125 4.03742188 -0.5134375 4.19984375 -1.421875 4.3671875 C-3.98502375 4.89028675 -3.98502375 4.89028675 -6.078125 6.0703125 C-8 7 -8 7 -12 7 C-12 6.34 -12 5.68 -12 5 C-11.30132813 4.72285156 -10.60265625 4.44570313 -9.8828125 4.16015625 C-8.97273437 3.79792969 -8.06265625 3.43570312 -7.125 3.0625 C-6.22007812 2.70285156 -5.31515625 2.34320313 -4.3828125 1.97265625 C-2.03862333 1.05098738 -2.03862333 1.05098738 0 0 Z " fill="#CFCFD0" transform="translate(756,468)"/>
<path d="M0 0 C1.67542976 0.28604898 3.34385343 0.61781233 5 1 C4.67 2.65 4.34 4.3 4 6 C2.0625 6.5625 2.0625 6.5625 0 7 C-1 6 -1 6 -1.125 3.5 C-1 1 -1 1 0 0 Z " fill="#1A1A1A" transform="translate(340,329)"/>
<path d="M0 0 C7.57142857 1.85714286 7.57142857 1.85714286 10 5 C9.01 5.99 8.02 6.98 7 8 C5.8274869 7.04882866 4.66212985 6.08882991 3.5 5.125 C2.8503125 4.59132813 2.200625 4.05765625 1.53125 3.5078125 C1.0259375 3.01023437 0.520625 2.51265625 0 2 C0 1.34 0 0.68 0 0 Z " fill="#D9D8D8" transform="translate(649,355)"/>
<path d="M0 0 C1.98 0 3.96 0 6 0 C6 0.33 6 0.66 6 1 C4.35 1 2.7 1 1 1 C1.33 1.99 1.66 2.98 2 4 C2 5.32 2 6.64 2 8 C0.68 8.33 -0.64 8.66 -2 9 C-2.33 7.35 -2.66 5.7 -3 4 C-2.34 4 -1.68 4 -1 4 C-0.67 2.68 -0.34 1.36 0 0 Z " fill="#222222" transform="translate(706,883)"/>
<path d="M0 0 C2.40034102 3.60051153 4.32187705 6.96144535 3.625 11.375 C3.41875 11.91125 3.2125 12.4475 3 13 C3 12.01 3 11.02 3 10 C1.35 10.66 -0.3 11.32 -2 12 C-2 9 -2 9 0 7 C0.16677282 3.41656024 0.16677282 3.41656024 0 0 Z " fill="#2B2A2B" transform="translate(435,493)"/>
<path d="M0 0 C1.98 0.495 1.98 0.495 4 1 C4 2.65 4 4.3 4 6 C2.68 6.33 1.36 6.66 0 7 C-1.125 2.25 -1.125 2.25 0 0 Z " fill="#151515" transform="translate(309,327)"/>
<path d="M0 0 C1.2065625 0.0309375 1.2065625 0.0309375 2.4375 0.0625 C1.4375 3.0625 1.4375 3.0625 -0.5625 4.0625 C-0.8925 5.0525 -1.2225 6.0425 -1.5625 7.0625 C-2.2225 7.0625 -2.8825 7.0625 -3.5625 7.0625 C-3.60504356 5.06295254 -3.60330783 3.06208364 -3.5625 1.0625 C-2.5625 0.0625 -2.5625 0.0625 0 0 Z " fill="#D5D5D6" transform="translate(893.5625,677.9375)"/>
<path d="M0 0 C0.33 0 0.66 0 1 0 C1.12375 1.093125 1.2475 2.18625 1.375 3.3125 C1.75464801 7.07381802 1.75464801 7.07381802 4 10 C2.68 10.33 1.36 10.66 0 11 C-2.21538462 5.70769231 -2.21538462 5.70769231 -1.125 2.125 C-0.75375 1.42375 -0.3825 0.7225 0 0 Z " fill="#2D2D2E" transform="translate(583,724)"/>
<path d="M0 0 C0.33 0 0.66 0 1 0 C1 1.65 1 3.3 1 5 C3.31 5 5.62 5 8 5 C4.77208445 7.1519437 3.71599191 7.20086443 0 7 C-0.66 5.68 -1.32 4.36 -2 3 C-1.34 3 -0.68 3 0 3 C0 2.01 0 1.02 0 0 Z " fill="#D3D3D3" transform="translate(745,409)"/>
<path d="M0 0 C0.33 0 0.66 0 1 0 C1.125 3.375 1.125 3.375 1 7 C0.34 7.66 -0.32 8.32 -1 9 C-1.99 9 -2.98 9 -4 9 C-2.94124926 5.59687262 -1.99097846 2.98646769 0 0 Z " fill="#DDDEDF" transform="translate(737,414)"/>
<path d="M0 0 C2.5 1.375 2.5 1.375 5 3 C5 3.66 5 4.32 5 5 C4.34 5 3.68 5 3 5 C2.67 5.99 2.34 6.98 2 8 C2 7.01 2 6.02 2 5 C1.34 5 0.68 5 0 5 C0 3.35 0 1.7 0 0 Z " fill="#D4D4D4" transform="translate(834,870)"/>
<path d="M0 0 C0.66 0.33 1.32 0.66 2 1 C1.54625 1.433125 1.0925 1.86625 0.625 2.3125 C-1.20024334 4.10798342 -1.20024334 4.10798342 -3 7 C-3.66 6.67 -4.32 6.34 -5 6 C-4.75 4.125 -4.75 4.125 -4 2 C-2.0625 0.6875 -2.0625 0.6875 0 0 Z " fill="#D2D2D3" transform="translate(812,497)"/>
<path d="M0 0 C1.98 0.495 1.98 0.495 4 1 C3.34 4.3 2.68 7.6 2 11 C1.67 11 1.34 11 1 11 C0.855625 9.88625 0.71125 8.7725 0.5625 7.625 C0.21627965 4.17857953 0.21627965 4.17857953 -1 2 C-0.67 1.34 -0.34 0.68 0 0 Z " fill="#C7C7C7" transform="translate(902,662)"/>
<path d="M0 0 C0.33 0 0.66 0 1 0 C1 1.65 1 3.3 1 5 C2.32 5.66 3.64 6.32 5 7 C4.01 7 3.02 7 2 7 C2 7.66 2 8.32 2 9 C1.01 9 0.02 9 -1 9 C-0.67 6.03 -0.34 3.06 0 0 Z " fill="#D3D2D3" transform="translate(887,628)"/>
<path d="M0 0 C1.65 0.33 3.3 0.66 5 1 C5 1.99 5 2.98 5 4 C4.01 4.33 3.02 4.66 2 5 C1.01 4.01 0.02 3.02 -1 2 C-0.67 1.34 -0.34 0.68 0 0 Z " fill="#EFEFEF" transform="translate(658,360)"/>
<path d="M0 0 C0.66 0.33 1.32 0.66 2 1 C2 3.97 2 6.94 2 10 C1.01 9.67 0.02 9.34 -1 9 C-1.09765625 2.84765625 -1.09765625 2.84765625 -1 1 C-0.67 0.67 -0.34 0.34 0 0 Z " fill="#201F20" transform="translate(676,336)"/>
<path d="M0 0 C0.66 0.33 1.32 0.66 2 1 C1.67 1.33 1.34 1.66 1 2 C1.99 2.66 2.98 3.32 4 4 C2.68 4 1.36 4 0 4 C0 5.32 0 6.64 0 8 C-0.66 8 -1.32 8 -2 8 C-2.125 5.125 -2.125 5.125 -2 2 C-1.34 1.34 -0.68 0.68 0 0 Z " fill="#A7A6A7" transform="translate(422,170)"/>
<path d="M0 0 C2.97 0.495 2.97 0.495 6 1 C5.34 2.32 4.68 3.64 4 5 C2.68 4.67 1.36 4.34 0 4 C0 2.68 0 1.36 0 0 Z " fill="#D5D5D6" transform="translate(956,996)"/>
<path d="M0 0 C1.32 0 2.64 0 4 0 C4.33 0.99 4.66 1.98 5 3 C3.35 3.33 1.7 3.66 0 4 C0 2.68 0 1.36 0 0 Z " fill="#252525" transform="translate(977,928)"/>
<path d="M0 0 C0.33 1.32 0.66 2.64 1 4 C-0.32 4.33 -1.64 4.66 -3 5 C-3.33 3.68 -3.66 2.36 -4 1 C-2.68 0.67 -1.36 0.34 0 0 Z " fill="#363536" transform="translate(916,925)"/>
<path d="M0 0 C1.44977894 2.34112451 2.04314411 3.5796929 1.7578125 6.359375 C1.54898438 7.14828125 1.34015625 7.9371875 1.125 8.75 C0.92132812 9.54921875 0.71765625 10.3484375 0.5078125 11.171875 C0.34023438 11.77515625 0.17265625 12.3784375 0 13 C-0.33 13 -0.66 13 -1 13 C-1.07654536 8.48382401 -1.10228696 4.40914783 0 0 Z " fill="#B1B0B1" transform="translate(992,852)"/>
<path d="M0 0 C2.0625 0.4375 2.0625 0.4375 4 1 C3.67 2.98 3.34 4.96 3 7 C0.7522025 4.94766315 -0.0022242 3.99332739 -1 1 C-0.67 0.67 -0.34 0.34 0 0 Z " fill="#EEEEEF" transform="translate(734,411)"/>
<path d="M0 0 C0.66 0.33 1.32 0.66 2 1 C1.2884375 2.0828125 1.2884375 2.0828125 0.5625 3.1875 C-0.94152903 5.89475226 -1.56599182 7.96194275 -2 11 C-2.33 11 -2.66 11 -3 11 C-3.36923077 3.49230769 -3.36923077 3.49230769 -1.5 1 C-1.005 0.67 -0.51 0.34 0 0 Z " fill="#2B2B2B" transform="translate(251,277)"/>
<path d="M0 0 C1.98 0.495 1.98 0.495 4 1 C4 1.66 4 2.32 4 3 C2.35 3.66 0.7 4.32 -1 5 C-0.67 3.35 -0.34 1.7 0 0 Z " fill="#626161" transform="translate(1020,934)"/>
<path d="M0 0 C0.66 0 1.32 0 2 0 C5 4.38461538 5 4.38461538 5 7 C3.0625 6.3125 3.0625 6.3125 1 5 C0.25 2.375 0.25 2.375 0 0 Z " fill="#D2D3D3" transform="translate(577,725)"/>
<path d="M0 0 C0.99 0 1.98 0 3 0 C1.84826645 2.46800047 0.95216435 4.04783565 -1 6 C-1.99 5.67 -2.98 5.34 -4 5 C-2.1875 2.5 -2.1875 2.5 0 0 Z " fill="#E6E6E7" transform="translate(899,674)"/>
<path d="M0 0 C3 3.75 3 3.75 3 6 C1.35 6 -0.3 6 -2 6 C-2 4.68 -2 3.36 -2 2 C-1.34 2 -0.68 2 0 2 C0 1.34 0 0.68 0 0 Z " fill="#C6C6C6" transform="translate(433,507)"/>
<path d="M0 0 C1.32 0.33 2.64 0.66 4 1 C2.68 2.32 1.36 3.64 0 5 C-0.66 4.67 -1.32 4.34 -2 4 C-1.34 2.68 -0.68 1.36 0 0 Z " fill="#D4D4D4" transform="translate(1040,969)"/>
<path d="M0 0 C0 0.66 0 1.32 0 2 C-3.96 3.98 -3.96 3.98 -8 6 C-5.82979469 1.65958937 -4.95602289 0 0 0 Z " fill="#303131" transform="translate(1004,933)"/>
<path d="M0 0 C1.98 0.66 3.96 1.32 6 2 C3.35261084 3.4606285 2.10551666 4 -1 4 C-0.67 2.68 -0.34 1.36 0 0 Z " fill="#EEEEEE" transform="translate(879,623)"/>
<path d="M0 0 C3.625 -0.1875 3.625 -0.1875 7 0 C7 0.33 7 0.66 7 1 C5.35 1 3.7 1 2 1 C1.67 2.32 1.34 3.64 1 5 C0.01 4.34 -0.98 3.68 -2 3 C-1.34 2.01 -0.68 1.02 0 0 Z " fill="#333434" transform="translate(815,491)"/>
<path d="M0 0 C0.99 0.99 1.98 1.98 3 3 C2.34 4.98 1.68 6.96 1 9 C0.34 8.67 -0.32 8.34 -1 8 C-0.67 5.36 -0.34 2.72 0 0 Z " fill="#464545" transform="translate(530,485)"/>
<path d="M0 0 C2.125 0.9375 2.125 0.9375 4 2 C3.01 2.99 2.02 3.98 1 5 C0.01 4.34 -0.98 3.68 -2 3 C-2 2.34 -2 1.68 -2 1 C-1.34 0.67 -0.68 0.34 0 0 Z " fill="#E1E1E1" transform="translate(655,358)"/>
<path d="M0 0 C0.66 0 1.32 0 2 0 C2.33 0.99 2.66 1.98 3 3 C1.68 3.99 0.36 4.98 -1 6 C-1.66 5.67 -2.32 5.34 -3 5 C-1.625 2.5 -1.625 2.5 0 0 Z " fill="#161616" transform="translate(564,289)"/>
<path d="M0 0 C2 0 2 0 3.625 1.3125 C5 3 5 3 5 6 C3.68 6 2.36 6 1 6 C0.67 4.02 0.34 2.04 0 0 Z " fill="#DFDFE0" transform="translate(431,179)"/>
</svg>
